<svg width="60" height="60" viewBox="0 0 60 60" fill="none" xmlns="http://www.w3.org/2000/svg">
<path d="M37.0691 15.7541C35.221 15.6713 34.6657 15.6547 30 15.6547C25.3343 15.6547 24.779 15.6713 22.9309 15.7541C18.1823 15.9696 15.9696 18.2155 15.7541 22.9309C15.6713 24.779 15.6547 25.326 15.6547 30C15.6547 34.674 15.6713 35.221 15.7541 37.0691C15.9696 41.768 18.174 44.0304 22.9309 44.2459C24.7707 44.3287 25.326 44.3453 30 44.3453C34.674 44.3453 35.2293 44.3287 37.0691 44.2459C41.8177 44.0304 44.0221 41.7762 44.2459 37.0691C44.3287 35.221 44.3453 34.6657 44.3453 30C44.3453 25.3343 44.3287 24.779 44.2459 22.9309C44.0221 18.2238 41.8177 15.9696 37.0691 15.7541ZM30 38.9834C25.0359 38.9834 21.0166 34.9641 21.0166 30C21.0166 25.0359 25.0442 21.0166 30 21.0166C34.9558 21.0166 38.9834 25.0359 38.9834 30C38.9834 34.9641 34.9641 38.9834 30 38.9834ZM39.3398 22.7569C38.1796 22.7569 37.2431 21.8204 37.2431 20.6602C37.2431 19.5 38.1796 18.5635 39.3398 18.5635C40.5 18.5635 41.4365 19.5 41.4365 20.6602C41.4447 21.8204 40.5 22.7569 39.3398 22.7569ZM35.8343 30C35.8343 33.2238 33.2238 35.8343 30 35.8343C26.7762 35.8343 24.1657 33.2238 24.1657 30C24.1657 26.7762 26.7762 24.1657 30 24.1657C33.2238 24.1657 35.8343 26.7762 35.8343 30ZM30 0C13.4337 0 0 13.4337 0 30C0 46.5663 13.4337 60 30 60C46.5663 60 60 46.5663 60 30C60 13.4337 46.5663 0 30 0ZM47.395 37.2099C47.105 43.5746 43.5663 47.0967 37.2182 47.3867C35.3536 47.4696 34.7569 47.4945 30 47.4945C25.2431 47.4945 24.6547 47.4779 22.7818 47.3867C16.4254 47.0967 12.895 43.5663 12.605 37.2099C12.5221 35.3453 12.4972 34.7486 12.4972 29.9917C12.4972 25.2348 12.5138 24.6464 12.605 22.7735C12.895 16.4171 16.4254 12.8867 22.7818 12.5967C24.6464 12.5055 25.2431 12.4889 30 12.4889C34.7569 12.4889 35.3536 12.5055 37.2182 12.5967C43.5829 12.8867 47.1133 16.4254 47.395 22.7735C47.4779 24.6381 47.5028 25.2348 47.5028 29.9917C47.5028 34.7486 47.4779 35.3453 47.395 37.2099Z" fill="white"/>
</svg>
