<svg width="60" height="60" viewBox="0 0 60 60" fill="none" xmlns="http://www.w3.org/2000/svg">
<g clip-path="url(#clip0_5730_23968)">
<path d="M31.9479 0.0616251C13.841 -1.08662 -1.08613 13.8405 0.0621133 31.9474C1.0072 46.8745 13.1167 58.9929 28.0527 59.938C46.1596 61.0862 61.0867 46.1591 59.9385 28.0522C58.9934 13.1162 46.8838 1.00672 31.9479 0.0616251ZM25.3941 30.1897C25.3941 34.2615 22.0907 37.5561 18.0277 37.5561C13.9647 37.5561 10.6613 34.2527 10.6613 30.1897C10.6613 26.1267 13.9647 22.8233 18.0277 22.8233C22.0907 22.8233 25.3941 26.1179 25.3941 30.1897ZM40.1357 47.8814C36.8765 47.8814 34.2355 45.2405 34.2355 41.9812C34.2355 41.5043 34.3062 41.045 34.4122 40.6034L26.3215 36.2842C26.9044 35.4981 27.3726 34.6237 27.7082 33.6874L35.7989 38.0066C36.8765 36.8318 38.4045 36.0899 40.1269 36.0899C43.3861 36.0899 46.0271 38.7308 46.0271 41.9901C46.0271 45.2493 43.395 47.8814 40.1357 47.8814ZM46.0359 18.3981C46.0359 21.6574 43.395 24.2983 40.1357 24.2983C38.4222 24.2983 36.8853 23.5564 35.8077 22.3817L27.7171 26.7008C27.3814 25.7646 26.9133 24.8901 26.3303 24.104L34.421 19.7849C34.315 19.3432 34.2444 18.8839 34.2444 18.407C34.2444 15.1477 36.8853 12.5068 40.1446 12.5068C43.4038 12.5068 46.0359 15.1389 46.0359 18.3981Z" fill="white"/>
</g>
<defs>
<clipPath id="clip0_5730_23968">
<rect width="60" height="60" fill="white"/>
</clipPath>
</defs>
</svg>
